<?xml version="1.0" encoding="UTF-8"?>
<!DOCTYPE
  svg
  PUBLIC "-//W3C//DTD SVG 1.1//EN" "http://www.w3.org/Graphics/SVG/1.1/DTD/svg11.dtd"
>
<svg
  version="1.1"
  xmlns="http://www.w3.org/2000/svg"
  xmlns:xlink="http://www.w3.org/1999/xlink"
  x="0"
  y="0"
  width="352"
  height="456"
  viewBox="0, 0, 352, 456"
>
  <g id="Layer_1">
    <path
      d="M146.75,428.517 C145.903,428.517 145.056,428.408 144.208,428.082 C139.019,426.668 135.841,421.228 137.218,415.788 L153.317,352.575 C154.694,347.244 160.096,343.98 165.286,345.394 C170.581,346.808 173.759,352.357 172.382,357.688 L156.177,420.901 C155.012,425.471 151.093,428.517 146.75,428.517"
      fill="#FF69B4"
    />
    <path
      d="M239.5,430.867 C235.1,430.867 231.2,427.667 230.4,423.167 L217.5,351.167 C216.6,346.167 220,341.367 225,340.467 C230.1,339.567 234.9,342.867 235.8,347.967 L248.7,419.967 C249.6,424.967 246.2,429.767 241.2,430.667 C240.6,430.767 240.1,430.867 239.5,430.867"
      fill="#FF69B4"
    />
    <path
      d="M280.66,309.367 C278.26,309.367 275.96,308.467 274.16,306.767 L226.36,260.867 C222.66,257.267 222.56,251.467 226.06,247.767 C229.66,244.067 235.46,243.967 239.16,247.467 L280.76,287.367 L315.06,255.667 C318.86,252.167 324.66,252.367 328.16,256.167 C331.66,259.867 331.36,265.767 327.66,269.267 L286.86,306.867 C285.16,308.567 282.86,309.367 280.66,309.367"
      fill="#FF69B4"
    />
    <path
      d="M352,254 C352,267 341.5,277.6 328.4,277.6 C315.4,277.6 304.8,267 304.8,254 C304.8,240.9 315.4,230.4 328.4,230.4 C341.5,230.4 352,240.9 352,254"
      fill="#FF69B4"
    />
    <path
      d="M110.5,455.961 L152.6,455.961 C161,455.961 167.4,448.561 166.2,440.161 C164.4,428.161 155.6,413.961 123.1,416.561 C96.5,418.661 94.8,434.161 97,445.061 C98.3,451.461 104,455.961 110.5,455.961"
      fill="#FF69B4"
    />
    <path
      d="M273.122,456 L231.122,456 C222.722,456 216.222,448.5 217.522,440.2 C219.222,428.2 228.122,414 260.622,416.5 C287.222,418.6 288.922,434.1 286.622,445.1 C285.322,451.5 279.722,456 273.122,456"
      fill="#FF69B4"
    />
    <path
      d="M38.009,131.967 C38.009,131.967 -3.991,124.767 0.309,174.467 C4.609,223.267 55.009,209.867 55.009,209.867 C55.009,209.867 30.109,149.467 38.009,131.967"
      fill="#FF69B4"
    />
    <path
      d="M277.6,94.9 C277.6,94.9 318.1,74.4 329.2,126.3 C340.1,177.4 284.6,179.5 284.6,179.5 C284.6,179.5 291,110.2 277.6,94.9"
      fill="#FF69B4"
    />
    <g>
      <path
        d="M213.7,46.026 C227.952,46.121 243.597,46.493 255.8,54.826 C280.3,72.626 305.7,133.626 286,183.326 C283.3,190.126 277.9,195.526 271,198.426 C250.1,207.226 198.5,226.626 142,229.926 C143.03,229.262 143.03,229.262 142,229.926 C124.5,230.926 106.6,230.426 88.9,227.626 C75.9,225.526 64.5,218.326 57.2,207.626 C45.4,190.326 30.8,160.726 37.3,126.326 C38,122.826 38.5,119.326 39,115.826 C40.8,103.326 50,69.726 95.7,62.026 C132.8,55.626 179,46.226 213.7,46.026 L213.7,46.026 z M251.796,104.431 C227.766,105.66 201.698,117.71 180.172,128.4 C173.572,131.7 167.172,133.7 161.872,134.9 C156.572,135.6 149.872,136 142.572,135.3 C125.272,133.5 69.472,129.3 59.372,143.6 C59.372,143.6 45.672,200.6 103.872,199.4 C153.472,198.5 154.372,164.2 153.472,154 C153.272,151.5 154.172,149 155.972,147.2 C157.272,146 159.072,144.8 161.272,144.5 C162.872,144.2 164.472,143.9 165.972,143.6 C168.172,143.2 170.172,143.6 171.872,144.3 C174.172,145.3 175.872,147.3 176.572,149.8 C179.372,159.6 192.372,191.3 239.072,174.7 C293.872,155.3 260.972,106.8 260.972,106.8 C258.222,104.901 254.995,104.758 251.796,104.431 z M193.915,108.247 C193.807,108.782 193.841,108.588 193.8,108.826 C193.842,108.588 193.807,108.782 193.915,108.247 z M208.153,83.963 C207.016,85.234 205.879,86.504 204.741,87.775 C203.884,88.797 203.098,89.877 202.276,90.928 L204.741,87.775 C205.879,86.504 207.016,85.234 208.153,83.963 z M227.403,69.929 L226.7,70.326 C223.329,72.186 224.574,71.388 222.852,72.532 C224.099,71.736 225.408,71.045 226.7,70.326 L227.403,69.929 z M234.055,64.068 L234.056,64.067 L234.056,64.067 L234.055,64.068 z M234.058,58.927 C234.501,59.79 234.805,60.774 234.651,61.755 C234.939,60.753 234.47,59.803 234.058,58.927 z"
        fill="#FF69B4"
      />
      <path
        d="M213.7,46.026 C227.952,46.121 243.597,46.493 255.8,54.826 C280.3,72.626 305.7,133.626 286,183.326 C283.3,190.126 277.9,195.526 271,198.426 C250.1,207.226 198.5,226.626 142,229.926 C143.03,229.262 143.03,229.262 142,229.926 C124.5,230.926 106.6,230.426 88.9,227.626 C75.9,225.526 64.5,218.326 57.2,207.626 C45.4,190.326 30.8,160.726 37.3,126.326 C38,122.826 38.5,119.326 39,115.826 C40.8,103.326 50,69.726 95.7,62.026 C132.8,55.626 179,46.226 213.7,46.026 L213.7,46.026 z M251.796,104.431 C227.766,105.66 201.698,117.71 180.172,128.4 C173.572,131.7 167.172,133.7 161.872,134.9 C156.572,135.6 149.872,136 142.572,135.3 C125.272,133.5 69.472,129.3 59.372,143.6 C59.372,143.6 45.672,200.6 103.872,199.4 C153.472,198.5 154.372,164.2 153.472,154 C153.272,151.5 154.172,149 155.972,147.2 C157.272,146 159.072,144.8 161.272,144.5 C162.872,144.2 164.472,143.9 165.972,143.6 C168.172,143.2 170.172,143.6 171.872,144.3 C174.172,145.3 175.872,147.3 176.572,149.8 C179.372,159.6 192.372,191.3 239.072,174.7 C293.872,155.3 260.972,106.8 260.972,106.8 C258.222,104.901 254.995,104.758 251.796,104.431 z M193.915,108.247 C193.807,108.782 193.841,108.588 193.8,108.826 C193.842,108.588 193.807,108.782 193.915,108.247 z M208.153,83.963 C207.016,85.234 205.879,86.504 204.741,87.775 C203.884,88.797 203.098,89.877 202.276,90.928 L204.741,87.775 C205.879,86.504 207.016,85.234 208.153,83.963 z M227.403,69.929 L226.7,70.326 C223.329,72.186 224.574,71.388 222.852,72.532 C224.099,71.736 225.408,71.045 226.7,70.326 L227.403,69.929 z M234.055,64.068 L234.056,64.067 L234.056,64.067 L234.055,64.068 z M234.058,58.927 C234.501,59.79 234.805,60.774 234.651,61.755 C234.939,60.753 234.47,59.803 234.058,58.927 z"
        fill-opacity="0"
      />
    </g>
    <path
      d="M15,152.567 C14.9,152.067 12,139.267 12.7,121.167 C13.1,110.567 14.6,100.367 17.3,90.667 C20.7,78.467 25.8,67.267 32.5,57.367 C52.3,28.367 85.4,10.167 131.1,3.167 C163.5,-1.733 192.8,-0.933 218.1,5.467 C238.6,10.767 256.6,19.667 271.5,32.067 C297.1,53.467 304.8,77.467 305.1,78.467 L305.2,78.767 L308.1,94.267 L295.5,96.667 L292.7,81.967 C292.3,80.767 290.4,75.667 286.5,68.967 C282.2,61.867 274.7,51.367 262.7,41.467 C249.3,30.467 233,22.467 214.4,17.767 C190.9,11.867 163.5,11.267 133,15.867 C91.1,22.267 60.9,38.567 43.2,64.467 C37.3,73.167 32.8,83.067 29.8,93.767 C27.3,102.467 25.9,111.667 25.5,121.267 C24.8,137.767 27.5,149.567 27.5,149.767 L15,152.567"
      fill="#FF69B4"
    />
    <g>
      <path
        d="M228.671,240.834 C184.271,258.634 153.171,255.134 135.071,249.334 C166.271,230.434 215.971,237.434 228.671,240.834 z"
        fill="#FF69B4"
      />
      <path
        d="M228.671,240.834 C184.271,258.634 153.171,255.134 135.071,249.334 C166.271,230.434 215.971,237.434 228.671,240.834 z"
        fill-opacity="0"
      />
    </g>
    <path
      d="M149.8,347.8 C149.8,360.9 139.2,371.4 126.2,371.4 C113.1,371.4 102.6,360.9 102.6,347.8 C102.6,334.8 113.1,324.2 126.2,324.2 C139.2,324.2 149.8,334.8 149.8,347.8"
      fill="#FF69B4"
    />
    <path
      d="M247.571,320.917 C247.271,327.017 246.371,332.317 244.571,336.017 C234.871,356.917 153.571,364.717 141.071,345.217 C138.271,340.817 136.371,333.917 135.071,325.717 C149.071,343.117 226.671,337.917 247.571,320.917 z M178.603,341.9 L178.603,341.9 C175.403,341.9 172.703,344.6 172.703,347.8 C172.703,351.1 175.403,353.7 178.603,353.7 C181.903,353.7 184.503,351.1 184.503,347.8 C184.503,344.6 181.903,341.9 178.603,341.9 z M211.455,340.452 L211.455,340.452 C208.255,340.452 205.555,343.152 205.555,346.352 C205.555,349.652 208.255,352.252 211.455,352.252 C214.755,352.252 217.355,349.652 217.355,346.352 C217.355,343.052 214.755,340.452 211.455,340.452 z"
      fill="#FF69B4"
    />
    <path
      d="M127.313,344.063 C125.413,344.063 123.613,343.563 121.913,342.363 L81.011,313.565 C78.611,311.966 77.211,309.266 77.011,306.466 C76.91,303.566 78.11,300.866 80.21,298.966 L129.607,256.262 C133.407,252.962 139.307,253.362 142.607,257.262 C146.008,261.061 145.608,266.961 141.708,270.262 L101.31,305.264 L132.612,327.262 C136.812,330.162 137.812,335.962 134.913,340.162 C133.013,342.662 130.213,344.062 127.313,344.063"
      fill="#FF69B4"
    />
    <path
      d="M247.469,323.631 C226.569,340.631 148.969,345.831 134.969,328.431 C130.469,299.831 133.569,256.031 133.569,256.031 C134.569,255.331 135.77,254.631 136.869,253.931 C154.969,259.731 186.069,263.231 230.469,245.431 C231.77,245.731 232.669,246.031 233.069,246.331 C237.27,248.431 248.77,295.331 247.469,323.631"
      fill="#FF69B4"
    />
  </g>
</svg>