<?xml version="1.0" encoding="UTF-8"?>
<!DOCTYPE svg PUBLIC "-//W3C//DTD SVG 1.1//EN" "http://www.w3.org/Graphics/SVG/1.1/DTD/svg11.dtd">
<svg version="1.1" xmlns="http://www.w3.org/2000/svg" xmlns:xlink="http://www.w3.org/1999/xlink" x="0" y="0" width="512" height="512" viewBox="0, 0, 512, 512">
  <g id="Layer_1">
    <path d="M23.989,447.039 C8.488,441.134 -1.662,427.294 0.184,414.191 C1.475,404.78 224.583,52.68 233.625,45.667 C247.097,35.333 270.164,39.024 280.683,53.049 C295.815,73.348 509.88,407.179 511.356,412.715 C517.631,438.181 476.479,460.326 455.441,442.795 C452.488,440.211 406.723,371.194 353.76,289.259 C300.797,207.323 256.508,139.228 255.401,137.937 C253.74,136.276 231.411,170.231 157.411,287.229 C93.929,387.249 59.421,440.396 55.361,443.533 C48.164,449.069 33.585,450.73 23.989,447.039 z" fill="#FF69B4"/>
    <path d="M308.511,380.029 C312.02,381.366 314.318,384.5 313.9,387.466 C313.608,389.597 263.093,469.317 261.046,470.905 C257.996,473.245 252.773,472.409 250.392,469.234 C246.965,464.638 198.498,389.054 198.164,387.801 C196.743,382.035 206.061,377.021 210.824,380.99 C211.492,381.575 221.854,397.201 233.846,415.753 C245.837,434.304 255.865,449.722 256.116,450.014 C256.492,450.39 261.547,442.702 278.302,416.212 C292.675,393.566 300.488,381.533 301.408,380.823 C303.037,379.569 306.338,379.193 308.511,380.029 z" fill="hotpink"/>
  </g>
</svg>
