<?xml version="1.0" encoding="UTF-8"?>
<!DOCTYPE svg PUBLIC "-//W3C//DTD SVG 1.1//EN" "http://www.w3.org/Graphics/SVG/1.1/DTD/svg11.dtd">
<svg version="1.1" xmlns="http://www.w3.org/2000/svg" xmlns:xlink="http://www.w3.org/1999/xlink" x="0" y="0" width="50.292" height="79.047" viewBox="0, 0, 50.292, 79.047">
  <g id="Layer_1">
    <path d="M27.112,61.691 C30.276,61.691 32.17,62.746 33.728,64.28 L31.378,66.988 C30.084,65.814 28.766,65.095 27.088,65.095 C24.259,65.095 22.222,67.444 22.222,70.32 L22.222,70.369 C22.222,73.245 24.212,75.643 27.088,75.643 C29.005,75.643 30.18,74.875 31.499,73.677 L33.848,76.05 C32.122,77.895 30.205,79.047 26.968,79.047 C22.03,79.047 18.362,75.235 18.362,70.417 L18.362,70.369 C18.362,65.599 21.958,61.691 27.112,61.691 z" fill="#FF69B4"/>
    <path d="M3.692,61.978 L3.692,71.472 C3.692,74.204 5.059,75.618 7.312,75.618 C9.565,75.618 10.932,74.252 10.932,71.591 L10.932,61.978 L14.623,61.978 L14.623,71.447 C14.623,76.529 11.771,79.022 7.264,79.022 C2.757,79.022 -0,76.506 -0,71.567 L-0,61.978 L3.692,61.978 z" fill="#FF69B4"/>
    <path d="M50.292,61.978 L50.292,65.335 L41.207,65.335 L41.207,68.906 L49.213,68.906 L49.213,72.263 L41.207,72.263 L41.207,78.759 L37.515,78.759 L37.515,61.978 L50.292,61.978 z" fill="#FF69B4"/>
    <path d="M4.156,40.23 C5.662,41.505 8.826,43.604 14.721,45.255 C17.733,46.101 20.538,46.167 22.791,46.219 C24.822,46.269 26.427,46.309 27.425,46.867 C28.251,47.328 28.748,48.061 28.748,48.824 L28.691,49.261 C28.402,50.392 26.863,51.61 23.414,51.644 C13.1,51.74 6.661,43.969 4.156,40.23 z" fill="#FF69B4"/>
    <path d="M1.756,18.255 C1.693,18.687 1.66,19.489 1.66,19.489 C1.66,22.848 2.465,29.145 7.865,33.614 C11.291,36.453 16.423,38.692 23.117,40.271 C27.654,41.341 30.244,42.964 30.816,45.089 L30.932,45.991 C30.932,47.043 30.462,48.156 29.598,49.294 C29.687,49.019 29.779,48.498 29.779,48.498 C29.779,48.07 29.686,47.675 29.501,47.323 C28.828,46.034 26.992,45.329 24.045,45.228 C18.683,45.044 5.824,43.704 2.22,35.194 C1.065,32.46 0.476,29.484 0.476,26.345 C0.476,22.76 1.241,19.834 1.756,18.255 z" fill="#FF69B4"/>
    <path d="M41.277,11.975 L43.561,23.223 C43.561,23.223 43.962,24.244 42.082,25.524 C40.207,26.8 40.072,26.546 40.072,26.546 C40.072,26.546 38.863,21.945 36.447,21.435 C34.033,20.921 34.033,24.119 34.166,25.139 C34.301,26.161 36.353,30.35 39.802,28.589 C43.561,26.673 45.305,24.244 45.305,24.244 C45.305,24.244 45.842,22.968 46.38,23.35 C46.916,23.732 48.928,25.906 48.928,25.906 L48.123,39.326 C48.123,39.326 48.123,40.989 45.842,41.627 C43.561,42.267 43.561,42.138 43.561,42.138 L44.767,38.046 L46.244,38.046 L45.842,28.589 C45.842,28.589 44.57,34.761 42.218,38.817 C39.402,43.671 34.836,47.634 34.836,47.634 C34.836,47.634 37.722,44.193 37.263,39.998 C36.962,37.219 35.751,34.007 29.742,29.048 C26.345,26.244 22.772,22.36 22.772,22.36 C22.772,22.36 27.056,15.179 31.481,14.02 C36.851,12.615 39.802,14.915 39.802,14.915 L41.277,11.975 z" fill="#FF69B4"/>
    <path d="M28.113,0.009 C29.764,-0.047 31.405,0.088 33.036,0.323 C29.851,0.464 22.031,1.87 18.278,9.322 C17.541,10.786 17.167,12.285 17.167,13.78 C17.167,19.867 23.376,25.124 28.364,29.347 C30.087,30.805 31.716,32.185 32.941,33.463 C35.153,35.776 36.277,38.239 36.277,40.789 C36.277,43.767 34.728,46.144 33.806,47.299 C34.4,46.198 34.647,44.993 34.647,43.774 C34.647,42.389 34.322,41.033 33.683,39.743 C32.487,37.331 28.661,35.574 24.961,33.88 C23.158,33.053 21.348,32.22 19.914,31.353 C13.035,27.183 10.769,22.084 10.077,18.537 C9.889,17.572 9.792,16.583 9.792,15.6 C9.792,12.562 10.691,9.685 12.324,7.499 C16.344,2.194 21.769,0.499 28.113,0.009 z" fill="#FF69B4"/>
    <path d="M14.46,3.105 C11.659,5.653 9.818,8.893 9.039,12.581 C8.929,13.392 8.872,14.192 8.872,14.977 C8.872,20.682 11.816,25.693 17.818,30.232 C19.717,31.666 22.268,32.82 24.733,33.933 C28.281,35.537 31.63,37.051 32.946,39.261 C33.601,40.363 33.848,41.437 33.848,42.422 C33.848,44.479 32.789,46.161 32.072,47.073 C32.246,46.583 32.406,45.942 32.406,45.198 C32.406,44.596 32.3,43.937 32.011,43.259 C31.031,40.958 28.296,39.306 23.882,38.345 C12.302,35.82 5.741,31.192 3.827,24.192 C3.355,22.461 3.145,20.844 3.145,19.335 C3.253,11.994 8.271,6.401 14.46,3.105 z" fill="#FF69B4"/>
    <path d="M28.203,3.105 C28.203,4.983 29.945,6.722 31.82,6.722 C29.945,6.722 28.203,8.465 28.203,10.34 C28.203,8.465 26.462,6.722 24.587,6.722 C26.462,6.722 28.203,4.983 28.203,3.105 z" fill="#FF69B4"/>
  </g>
</svg>
